<svg xmlns="http://www.w3.org/2000/svg" width="134" height="24" viewBox="0 0 134 24" fill="none">
  <g clip-path="url(#clip0_679_198)">
    <path d="M70.4268 14.8772V20.4285C70.4268 20.8654 70.0778 21.217 69.6441 21.217H67.0741C66.6405 21.217 66.2915 20.8654 66.2915 20.4285V1.78213C66.2915 1.34527 66.6405 0.993652 67.0741 0.993652H74.1179C75.6197 0.993652 76.9523 1.27068 78.0945 1.82475C79.2367 2.37881 80.1145 3.16729 80.7385 4.19018C81.3625 5.21307 81.6587 6.37447 81.6587 7.68505C81.6587 9.66689 80.9818 11.2332 79.6386 12.3733C78.2955 13.5134 76.434 14.0888 74.0544 14.0888H71.2094C70.7758 14.0888 70.4268 14.4404 70.4268 14.8772ZM70.4268 10.2529C70.4268 10.5086 70.6277 10.7217 70.8921 10.7217H74.1284C75.2178 10.7217 76.0533 10.466 76.6244 9.94392C77.1955 9.42183 77.4811 8.68662 77.4811 7.72767C77.4811 6.76871 77.1955 5.93761 76.6138 5.33027C76.0322 4.72293 75.2389 4.40328 74.213 4.38197H70.8816C70.6277 4.38197 70.4162 4.58442 70.4162 4.85079V10.2636L70.4268 10.2529Z" fill="#005CFF"/>
    <path d="M89.8869 17.8713H97.0999C97.5335 17.8713 97.8825 18.2229 97.8825 18.6598V20.4392C97.8825 20.8761 97.5335 21.2277 97.0999 21.2277H85.7516C85.318 21.2277 84.969 20.8761 84.969 20.4392V1.78213C84.969 1.34527 85.318 0.993652 85.7516 0.993652H88.3216C88.7553 0.993652 89.1043 1.34527 89.1043 1.78213V17.0828C89.1043 17.5197 89.4533 17.8713 89.8869 17.8713Z" fill="#005CFF"/>
    <path d="M116.814 9.34714L103.985 0.801755C103.435 0.428827 102.726 0.396862 102.145 0.716515C101.563 1.03617 101.193 1.64351 101.193 2.31478V19.4055C101.193 20.0768 101.552 20.6842 102.145 21.0038C102.409 21.1423 102.705 21.2169 103.001 21.2169C103.35 21.2169 103.699 21.1104 103.996 20.9186L116.824 12.3732C117.332 12.0322 117.628 11.4675 117.628 10.8602C117.628 10.2528 117.332 9.6881 116.824 9.34714H116.814ZM112.012 11.2224L105.466 15.5804C105.18 15.7722 104.799 15.5591 104.799 15.2181V6.49157C104.799 6.13996 105.18 5.93751 105.466 6.1293L112.012 10.4872C112.266 10.6577 112.266 11.0413 112.012 11.2118V11.2224Z" fill="#005CFF"/>
    <path d="M133.916 2.1444C134.18 1.6223 133.81 0.993652 133.217 0.993652H130.478C130.172 0.993652 129.897 1.17479 129.77 1.45182L126.512 6.87526C126.237 7.4826 125.37 7.4826 125.095 6.87526L121.859 1.45182C121.732 1.17479 121.457 0.993652 121.15 0.993652H118.4C117.819 0.993652 117.438 1.61165 117.702 2.1444L123.424 11.1906C123.593 11.4463 123.688 11.7553 123.71 12.0749V20.4179C123.71 20.8547 124.059 21.2064 124.492 21.2064H127.136C127.57 21.2064 127.919 20.8547 127.919 20.4179V12.0536C127.94 11.734 128.035 11.4463 128.194 11.2012L133.926 2.13375L133.916 2.1444Z" fill="#005CFF"/>
    <path d="M10.0473 1.00439H12.6702C13.0826 1.00439 13.4211 1.34536 13.4211 1.76091V14.9945C13.4211 16.2838 13.1355 17.4132 12.575 18.4042C12.0144 19.3951 11.2106 20.1516 10.1848 20.6843C9.15887 21.2171 7.99549 21.4941 6.69462 21.4941C4.56881 21.4941 2.91893 20.9507 1.7344 19.8639C0.729665 18.9369 0.158552 17.6796 -9.00193e-05 16.1027C-0.0423947 15.6445 0.296043 15.2502 0.750818 15.2502H3.41601C3.78618 15.2502 4.11404 15.5273 4.15634 15.9002C4.23038 16.5608 4.42075 17.0829 4.73803 17.4452C5.1505 17.914 5.80622 18.1484 6.69462 18.1484C7.48783 18.1484 8.11183 17.8714 8.58776 17.328C9.05311 16.7846 9.28578 16.0068 9.28578 14.9945V1.76091C9.28578 1.34536 9.62422 1.00439 10.0367 1.00439H10.0473Z" fill="#005CFF"/>
    <path d="M40.6229 20.4499V1.76091C40.6229 1.34536 40.9613 1.00439 41.3738 1.00439H47.6455C50.078 1.00439 51.9288 1.47322 53.1874 2.41087C54.4459 3.34851 55.0805 4.72302 55.0805 6.54504C55.0805 7.53596 54.8267 8.40968 54.319 9.16619C54.0758 9.53912 53.7796 9.85877 53.4412 10.1252C53.0287 10.4555 53.0499 11.0841 53.4941 11.3505C53.9383 11.6169 54.319 11.9685 54.6363 12.3947C55.2286 13.1832 55.5247 14.1421 55.5247 15.2822C55.5247 17.2214 54.9113 18.7025 53.6739 19.6934C52.447 20.695 50.6914 21.2064 48.4069 21.2171H41.3632C40.9507 21.2171 40.6123 20.8761 40.6123 20.4606L40.6229 20.4499ZM44.7582 9.00637C44.7582 9.26209 44.9591 9.46453 45.2129 9.46453H47.8147C49.8982 9.43257 50.9452 8.59082 50.9452 6.94993C50.9452 6.0336 50.6808 5.37298 50.152 4.96809C49.6232 4.56319 48.7877 4.36075 47.656 4.36075H45.2235C44.9697 4.36075 44.7687 4.56319 44.7687 4.81892V8.99571L44.7582 9.00637ZM44.7582 12.8742V17.4132C44.7582 17.669 44.9591 17.8714 45.2129 17.8714H48.3012C49.2742 17.8714 50.0357 17.637 50.5856 17.1682C51.1356 16.6993 51.4106 16.06 51.4106 15.2289C51.4106 13.375 50.4587 12.4373 48.555 12.4053H45.2235C44.9697 12.4053 44.7687 12.6078 44.7687 12.8635L44.7582 12.8742Z" fill="#005CFF"/>
    <path d="M29.6556 21.5471L27.9317 16.1556C27.8682 15.9425 27.9951 15.7294 28.2172 15.6762C29.0316 15.495 29.7719 15.1328 30.4171 14.6426C30.544 14.5467 30.7026 14.5254 30.8401 14.6107C31.9083 15.25 32.8496 16.1663 33.6534 17.2638C35.1975 15.0582 36.8474 12.1813 36.8474 9.90111C36.8474 4.43505 32.4477 0.0131836 27.0327 0.0131836C21.6177 0.0131836 17.218 4.4457 17.218 9.90111C17.218 12.192 18.8785 15.0688 20.412 17.2744C21.2158 16.177 22.1571 15.25 23.2253 14.6107C23.3628 14.5361 23.5214 14.5467 23.6483 14.6426C24.2829 15.1434 25.0232 15.5057 25.8482 15.6868C26.0703 15.7401 26.2078 15.9532 26.1337 16.1663L24.4098 21.5578C24.3781 21.6324 24.3569 21.7176 24.3569 21.8028C24.3569 21.9733 24.4204 22.1118 24.5156 22.229C25.7107 23.3905 26.6414 23.9978 27.0327 23.9978C27.424 23.9978 28.3336 23.3905 29.5287 22.2397C29.6344 22.1225 29.7085 21.9627 29.7085 21.7922C29.7085 21.7069 29.6873 21.6217 29.6556 21.5471ZM22.707 9.61342C22.707 7.20537 24.6425 5.25549 27.0327 5.25549C29.4229 5.25549 31.3583 7.20537 31.3583 9.61342C31.3583 12.0215 29.4229 13.9714 27.0327 13.9714C24.6425 13.9714 22.707 12.0215 22.707 9.61342Z" fill="#005CFF"/>
    <path d="M27.0222 13.9712C29.4112 13.9712 31.3478 12.0201 31.3478 9.6133C31.3478 7.20648 29.4112 5.25537 27.0222 5.25537C24.6332 5.25537 22.6965 7.20648 22.6965 9.6133C22.6965 12.0201 24.6332 13.9712 27.0222 13.9712Z" fill="white"/>
    <path d="M26.1231 16.1554C26.1865 15.9423 26.0596 15.7292 25.8375 15.676C25.0232 15.4948 24.2828 15.1325 23.6377 14.6318C23.5108 14.5359 23.3521 14.5145 23.2146 14.5998C22.1464 15.2391 21.2052 16.1554 20.4014 17.2636C21.0359 18.1692 21.6388 18.9577 22.1147 19.5544C22.8762 20.5134 24.5155 22.2395 24.5155 22.2288C24.4203 22.1116 24.3569 21.9625 24.3569 21.8026C24.3569 21.7174 24.378 21.6321 24.4097 21.5576L26.1336 16.1661L26.1231 16.1554Z" fill="white"/>
    <path d="M33.6428 17.2636C32.839 16.1661 31.8977 15.2498 30.8295 14.6105C30.692 14.5359 30.5334 14.5465 30.4065 14.6424C29.7719 15.1432 29.0316 15.5055 28.2066 15.676C27.9845 15.7293 27.847 15.9424 27.9211 16.1555L29.645 21.5469C29.6767 21.6215 29.6978 21.7068 29.6978 21.792C29.6978 21.9625 29.6238 22.1117 29.5181 22.2395C29.5181 22.2395 31.1679 20.5134 31.9294 19.5544C32.3948 18.9577 33.0082 18.1693 33.6428 17.2636Z" fill="white"/>
    <path d="M70.4268 14.8772V20.4285C70.4268 20.8654 70.0778 21.217 69.6441 21.217H67.0741C66.6405 21.217 66.2915 20.8654 66.2915 20.4285V1.78213C66.2915 1.34527 66.6405 0.993652 67.0741 0.993652H74.1179C75.6197 0.993652 76.9523 1.27068 78.0945 1.82475C79.2367 2.37881 80.1145 3.16729 80.7385 4.19018C81.3625 5.21307 81.6587 6.37447 81.6587 7.68505C81.6587 9.66689 80.9818 11.2332 79.6386 12.3733C78.2955 13.5134 76.434 14.0888 74.0544 14.0888H71.2094C70.7758 14.0888 70.4268 14.4404 70.4268 14.8772ZM70.4268 10.2529C70.4268 10.5086 70.6277 10.7217 70.8921 10.7217H74.1284C75.2178 10.7217 76.0533 10.466 76.6244 9.94392C77.1955 9.42183 77.4811 8.68662 77.4811 7.72767C77.4811 6.76871 77.1955 5.93761 76.6138 5.33027C76.0322 4.72293 75.2389 4.40328 74.213 4.38197H70.8816C70.6277 4.38197 70.4162 4.58442 70.4162 4.85079V10.2636L70.4268 10.2529Z" fill="#005CFF"/>
    <path d="M89.8869 17.8713H97.0999C97.5335 17.8713 97.8825 18.2229 97.8825 18.6598V20.4392C97.8825 20.8761 97.5335 21.2277 97.0999 21.2277H85.7516C85.318 21.2277 84.969 20.8761 84.969 20.4392V1.78213C84.969 1.34527 85.318 0.993652 85.7516 0.993652H88.3216C88.7553 0.993652 89.1043 1.34527 89.1043 1.78213V17.0828C89.1043 17.5197 89.4533 17.8713 89.8869 17.8713Z" fill="#005CFF"/>
    <path d="M116.814 9.34714L103.985 0.801755C103.435 0.428827 102.726 0.396862 102.145 0.716515C101.563 1.03617 101.193 1.64351 101.193 2.31478V19.4055C101.193 20.0768 101.552 20.6842 102.145 21.0038C102.409 21.1423 102.705 21.2169 103.001 21.2169C103.35 21.2169 103.699 21.1104 103.996 20.9186L116.824 12.3732C117.332 12.0322 117.628 11.4675 117.628 10.8602C117.628 10.2528 117.332 9.6881 116.824 9.34714H116.814ZM112.012 11.2224L105.466 15.5804C105.18 15.7722 104.799 15.5591 104.799 15.2181V6.49157C104.799 6.13996 105.18 5.93751 105.466 6.1293L112.012 10.4872C112.266 10.6577 112.266 11.0413 112.012 11.2118V11.2224Z" fill="#005CFF"/>
    <path d="M133.916 2.1444C134.18 1.6223 133.81 0.993652 133.217 0.993652H130.478C130.172 0.993652 129.897 1.17479 129.77 1.45182L126.512 6.87526C126.237 7.4826 125.37 7.4826 125.095 6.87526L121.859 1.45182C121.732 1.17479 121.457 0.993652 121.15 0.993652H118.4C117.819 0.993652 117.438 1.61165 117.702 2.1444L123.424 11.1906C123.593 11.4463 123.688 11.7553 123.71 12.0749V20.4179C123.71 20.8547 124.059 21.2064 124.492 21.2064H127.136C127.57 21.2064 127.919 20.8547 127.919 20.4179V12.0536C127.94 11.734 128.035 11.4463 128.194 11.2012L133.926 2.13375L133.916 2.1444Z" fill="#005CFF"/>
    <path d="M10.0473 1.00439H12.6702C13.0826 1.00439 13.4211 1.34536 13.4211 1.76091V14.9945C13.4211 16.2838 13.1355 17.4132 12.575 18.4042C12.0144 19.3951 11.2106 20.1516 10.1848 20.6843C9.15887 21.2171 7.99549 21.4941 6.69462 21.4941C4.56881 21.4941 2.91893 20.9507 1.7344 19.8639C0.729665 18.9369 0.158552 17.6796 -9.00193e-05 16.1027C-0.0423947 15.6445 0.296043 15.2502 0.750818 15.2502H3.41601C3.78618 15.2502 4.11404 15.5273 4.15634 15.9002C4.23038 16.5608 4.42075 17.0829 4.73803 17.4452C5.1505 17.914 5.80622 18.1484 6.69462 18.1484C7.48783 18.1484 8.11183 17.8714 8.58776 17.328C9.05311 16.7846 9.28578 16.0068 9.28578 14.9945V1.76091C9.28578 1.34536 9.62422 1.00439 10.0367 1.00439H10.0473Z" fill="#005CFF"/>
    <path d="M40.6229 20.4499V1.76091C40.6229 1.34536 40.9613 1.00439 41.3738 1.00439H47.6455C50.078 1.00439 51.9288 1.47322 53.1874 2.41087C54.4459 3.34851 55.0805 4.72302 55.0805 6.54504C55.0805 7.53596 54.8267 8.40968 54.319 9.16619C54.0758 9.53912 53.7796 9.85877 53.4412 10.1252C53.0287 10.4555 53.0499 11.0841 53.4941 11.3505C53.9383 11.6169 54.319 11.9685 54.6363 12.3947C55.2286 13.1832 55.5247 14.1421 55.5247 15.2822C55.5247 17.2214 54.9113 18.7025 53.6739 19.6934C52.447 20.695 50.6914 21.2064 48.4069 21.2171H41.3632C40.9507 21.2171 40.6123 20.8761 40.6123 20.4606L40.6229 20.4499ZM44.7582 9.00637C44.7582 9.26209 44.9591 9.46453 45.2129 9.46453H47.8147C49.8982 9.43257 50.9452 8.59082 50.9452 6.94993C50.9452 6.0336 50.6808 5.37298 50.152 4.96809C49.6232 4.56319 48.7877 4.36075 47.656 4.36075H45.2235C44.9697 4.36075 44.7687 4.56319 44.7687 4.81892V8.99571L44.7582 9.00637ZM44.7582 12.8742V17.4132C44.7582 17.669 44.9591 17.8714 45.2129 17.8714H48.3012C49.2742 17.8714 50.0357 17.637 50.5856 17.1682C51.1356 16.6993 51.4106 16.06 51.4106 15.2289C51.4106 13.375 50.4587 12.4373 48.555 12.4053H45.2235C44.9697 12.4053 44.7687 12.6078 44.7687 12.8635L44.7582 12.8742Z" fill="#005CFF"/>
    <path d="M29.6556 21.5471L27.9317 16.1556C27.8682 15.9425 27.9951 15.7294 28.2172 15.6762C29.0316 15.495 29.7719 15.1328 30.4171 14.6426C30.544 14.5467 30.7026 14.5254 30.8401 14.6107C31.9083 15.25 32.8496 16.1663 33.6534 17.2638C35.1975 15.0582 36.8474 12.1813 36.8474 9.90111C36.8474 4.43505 32.4477 0.0131836 27.0327 0.0131836C21.6177 0.0131836 17.218 4.4457 17.218 9.90111C17.218 12.192 18.8785 15.0688 20.412 17.2744C21.2158 16.177 22.1571 15.25 23.2253 14.6107C23.3628 14.5361 23.5214 14.5467 23.6483 14.6426C24.2829 15.1434 25.0232 15.5057 25.8482 15.6868C26.0703 15.7401 26.2078 15.9532 26.1337 16.1663L24.4098 21.5578C24.3781 21.6324 24.3569 21.7176 24.3569 21.8028C24.3569 21.9733 24.4204 22.1118 24.5156 22.229C25.7107 23.3905 26.6414 23.9978 27.0327 23.9978C27.424 23.9978 28.3336 23.3905 29.5287 22.2397C29.6344 22.1225 29.7085 21.9627 29.7085 21.7922C29.7085 21.7069 29.6873 21.6217 29.6556 21.5471ZM22.707 9.61342C22.707 7.20537 24.6425 5.25549 27.0327 5.25549C29.4229 5.25549 31.3583 7.20537 31.3583 9.61342C31.3583 12.0215 29.4229 13.9714 27.0327 13.9714C24.6425 13.9714 22.707 12.0215 22.707 9.61342Z" fill="#005CFF"/>
    <path d="M27.0222 13.9712C29.4112 13.9712 31.3478 12.0201 31.3478 9.6133C31.3478 7.20648 29.4112 5.25537 27.0222 5.25537C24.6332 5.25537 22.6965 7.20648 22.6965 9.6133C22.6965 12.0201 24.6332 13.9712 27.0222 13.9712Z" fill="white"/>
    <path d="M26.1231 16.1554C26.1865 15.9423 26.0596 15.7292 25.8375 15.676C25.0232 15.4948 24.2828 15.1325 23.6377 14.6318C23.5108 14.5359 23.3521 14.5145 23.2146 14.5998C22.1464 15.2391 21.2052 16.1554 20.4014 17.2636C21.0359 18.1692 21.6388 18.9577 22.1147 19.5544C22.8762 20.5134 24.5155 22.2395 24.5155 22.2288C24.4203 22.1116 24.3569 21.9625 24.3569 21.8026C24.3569 21.7174 24.378 21.6321 24.4097 21.5576L26.1336 16.1661L26.1231 16.1554Z" fill="white"/>
    <path d="M33.6428 17.2636C32.839 16.1661 31.8977 15.2498 30.8295 14.6105C30.692 14.5359 30.5334 14.5465 30.4065 14.6424C29.7719 15.1432 29.0316 15.5055 28.2066 15.676C27.9845 15.7293 27.847 15.9424 27.9211 16.1555L29.645 21.5469C29.6767 21.6215 29.6978 21.7068 29.6978 21.792C29.6978 21.9625 29.6238 22.1117 29.5181 22.2395C29.5181 22.2395 31.1679 20.5134 31.9294 19.5544C32.3948 18.9577 33.0082 18.1693 33.6428 17.2636Z" fill="white"/>
  </g>
  <defs>
    <clipPath id="clip0_679_198">
      <rect width="134" height="23.9953" fill="white" transform="translate(0 0.00244141)"/>
    </clipPath>
  </defs>
</svg>